PathFileType	3	(X/Y/Z)	walking_1__view1_aligned.trc
DataRate	CameraRate	NumFrames	NumMarkers	Units	OrigDataRate	OrigDataStartFrame	OrigNumFrames
100.0	100.0	17	19	mm	100.0	2290	6105
Frame#	Time	pelvis			neck			head			hip_left			hip_right			knee_left			knee_right			ankle_left			ankle_right			heel_left			heel_right			toe_left			toe_right			shoulder_left			shoulder_right			elbow_left			elbow_right			wrist_left			wrist_right			
		X1	Y1	Z1	X2	Y2	Z2	X3	Y3	Z3	X4	Y4	Z4	X5	Y5	Z5	X6	Y6	Z6	X7	Y7	Z7	X8	Y8	Z8	X9	Y9	Z9	X10	Y10	Z10	X11	Y11	Z11	X12	Y12	Z12	X13	Y13	Z13	X14	Y14	Z14	X15	Y15	Z15	X16	Y16	Z16	X17	Y17	Z17	X18	Y18	Z18	X19	Y19	Z19	
2290	22.89000	-21.980426	936.133959	194.249091	-62.946990	1497.368431	270.678443	-50.714556	1575.282280	418.761759	55.285510	940.004821	198.739689	-99.246372	932.263096	189.758482	68.933414	533.362733	386.591776	-157.707182	491.600153	193.789457	98.102924	110.935299	423.528359	-182.736376	170.031346	-53.462683	103.889953	54.830053	398.948319	-180.879964	147.132919	-104.315157	71.312571	92.552077	623.612194	-178.945957	40.947044	61.983392	118.509933	1467.070198	213.090514	-241.589910	1433.035672	256.965104	178.223519	1183.775933	137.272741	-289.404471	1144.493666	305.503837	233.485219	924.551566	148.368781	-247.150006	966.904431	509.158585
2291	22.90000	-19.272474	936.547386	193.192977	-60.122932	1497.578548	270.546867	-48.982700	1575.509219	418.746868	57.963381	940.596497	197.739724	-96.508298	932.498281	188.646191	70.392051	532.396888	382.120993	-155.067999	492.878396	198.140010	98.386722	110.346091	417.268580	-179.442951	173.358711	-53.914768	104.073230	54.420489	392.528974	-177.408274	151.230448	-105.263247	71.586964	91.169184	616.821784	-176.341635	41.653214	59.452664	121.744130	1466.836069	214.079431	-238.804205	1433.228975	255.595291	181.310378	1183.493362	137.896094	-285.998303	1144.335995	301.893172	233.806074	924.645752	150.866360	-244.822377	964.500218	501.533175
2292	22.91000	-16.564521	936.960814	192.136862	-57.298874	1497.788664	270.415291	-47.250844	1575.736158	418.731976	60.641252	941.188173	196.739758	-93.770225	932.733467	187.533901	71.850688	531.431043	377.650210	-152.428816	494.156639	202.490564	98.670520	109.756882	411.008801	-176.149527	176.686076	-54.366852	104.256506	54.010925	386.109630	-173.936583	155.327977	-106.211337	71.861357	89.786292	610.031374	-173.737313	42.359383	56.921935	124.978328	1466.601941	215.068348	-236.018501	1433.422277	254.225478	184.397237	1183.210791	138.519448	-282.592135	1144.178323	298.282507	234.126929	924.739939	153.363938	-242.494748	962.096006	493.907765
2293	22.92000	-13.856569	937.374242	191.080748	-54.474816	1497.998781	270.283715	-45.518987	1575.963097	418.717085	63.319123	941.779849	195.739792	-91.032151	932.968653	186.421610	73.309325	530.465197	373.179427	-149.789634	495.434882	206.841118	98.954318	109.167674	404.749022	-172.856102	180.013441	-54.818936	104.439783	53.601362	379.690285	-170.464892	159.425506	-107.159427	72.135750	88.403399	603.240964	-171.132990	43.065552	54.391207	128.212526	1466.367813	216.057265	-233.232797	1433.615579	252.855665	187.484096	1182.928221	139.142801	-279.185968	1144.020652	294.671842	234.447784	924.834126	155.861516	-240.167119	959.691793	486.282355
2294	22.93000	-11.148616	937.787670	190.024633	-51.650758	1498.208898	270.152139	-43.787131	1576.190036	418.702193	65.996993	942.371525	194.739827	-88.294077	933.203838	185.309320	74.767961	529.499352	368.708645	-147.150451	496.713125	211.191671	99.238116	108.578465	398.489243	-169.562678	183.340806	-55.271021	104.623059	53.191798	373.270941	-166.993202	163.523035	-108.107517	72.410143	87.020506	596.450554	-168.528668	43.771722	51.860478	131.446723	1466.133684	217.046183	-230.447093	1433.808881	251.485851	190.570955	1182.645650	139.766155	-275.779800	1143.862981	291.061176	234.768639	924.928313	158.359094	-237.839491	957.287581	478.656945
2295	22.94000	-8.440664	938.201097	188.968519	-48.826700	1498.419014	270.020562	-42.055275	1576.416975	418.687302	68.674864	942.963201	193.739861	-85.556003	933.439024	184.197029	76.226598	528.533506	364.237862	-144.511268	497.991368	215.542225	99.521914	107.989257	392.229463	-166.269253	186.668171	-55.723105	104.806335	52.782234	366.851596	-163.521511	167.620564	-109.055607	72.684536	85.637613	589.660143	-165.924345	44.477891	49.329750	134.680921	1465.899556	218.035100	-227.661388	1434.002184	250.116038	193.657814	1182.363079	140.389509	-272.373632	1143.705309	287.450511	235.089494	925.022499	160.856673	-235.511862	954.883368	471.031535
2296	22.95000	-5.732711	938.614525	187.912405	-46.002642	1498.629131	269.888986	-40.323419	1576.643914	418.672410	71.352735	943.554876	192.739895	-82.817929	933.674209	183.084739	77.685235	527.567661	359.767079	-141.872085	499.269612	219.892779	99.805712	107.400048	385.969684	-162.975829	189.995536	-56.175189	104.989612	52.372671	360.432252	-160.049820	171.718093	-110.003697	72.958929	84.254720	582.869733	-163.320023	45.184060	46.799021	137.915119	1465.665428	219.024017	-224.875684	1434.195486	248.746225	196.744673	1182.080508	141.012862	-268.967465	1143.547638	283.839846	235.410349	925.116686	163.354251	-233.184233	952.479155	463.406125
2297	22.96000	-3.024758	939.027953	186.856290	-43.178584	1498.839248	269.757410	-38.591563	1576.870853	418.657519	74.030606	944.146552	191.739930	-80.079855	933.909395	181.972448	79.143872	526.601816	355.296296	-139.232902	500.547855	224.243333	100.089510	106.810840	379.709905	-159.682405	193.322901	-56.627274	105.172888	51.963107	354.012907	-156.578130	175.815622	-110.951787	73.233323	82.871827	576.079323	-160.715700	45.890230	44.268293	141.149316	1465.431299	220.012934	-222.089980	1434.388788	247.376412	199.831532	1181.797937	141.636216	-265.561297	1143.389967	280.229180	235.731205	925.210873	165.851829	-230.856604	950.074943	455.780715
2298	22.97000	-0.316806	939.441381	185.800176	-40.354526	1499.049364	269.625834	-36.859706	1577.097792	418.642627	76.708477	944.738228	190.739964	-77.341782	934.144581	180.860158	80.602508	525.635970	350.825513	-136.593719	501.826098	228.593886	100.373308	106.221631	373.450126	-156.388980	196.650266	-57.079358	105.356165	51.553543	347.593563	-153.106439	179.913150	-111.899876	73.507716	81.488934	569.288913	-158.111378	46.596399	41.737564	144.383514	1465.197171	221.001851	-219.304276	1434.582090	246.006599	202.918390	1181.515367	142.259569	-262.155129	1143.232295	276.618515	236.052060	925.305060	168.349407	-228.528976	947.670730	448.155306
2299	22.98000	2.391147	939.854808	184.744061	-37.530468	1499.259481	269.494258	-35.127850	1577.324731	418.627736	79.386348	945.329904	189.739999	-74.603708	934.379766	179.747867	82.061145	524.670125	346.354731	-133.954536	503.104341	232.944440	100.657106	105.632423	367.190347	-153.095556	199.977632	-57.531442	105.539441	51.143980	341.174218	-149.634749	184.010679	-112.847966	73.782109	80.106041	562.498503	-155.507056	47.302568	39.206836	147.617712	1464.963043	221.990768	-216.518571	1434.775393	244.636785	206.005249	1181.232796	142.882923	-258.748962	1143.074624	273.007850	236.372915	925.399246	170.846986	-226.201347	945.266518	440.529896
2300	22.99000	5.099099	940.268236	183.687947	-34.706410	1499.469598	269.362682	-33.395994	1577.551670	418.612845	82.064219	945.921580	188.740033	-71.865634	934.614952	178.635577	83.519782	523.704280	341.883948	-131.315353	504.382584	237.294994	100.940904	105.043214	360.930568	-149.802131	203.304997	-57.983526	105.722718	50.734416	334.754874	-146.163058	188.108208	-113.796056	74.056502	78.723148	555.708093	-152.902733	48.008738	36.676107	150.851910	1464.728914	222.979685	-213.732867	1434.968695	243.266972	209.092108	1180.950225	143.506277	-255.342794	1142.916953	269.397185	236.693770	925.493433	173.344564	-223.873718	942.862305	432.904486
2301	23.00000	7.724336	940.876158	182.210204	-32.342093	1499.900950	269.198616	-32.145040	1577.944766	418.607405	84.751878	946.658580	187.371902	-69.302857	935.093788	177.048252	84.785350	523.001863	336.499239	-129.029871	506.046588	242.752265	100.428864	104.711906	350.864172	-147.272685	205.133241	-50.283426	104.962295	50.715992	324.190237	-143.490402	189.937397	-105.895897	73.871423	76.665609	545.108963	-151.469992	49.901350	44.225885	153.554385	1464.956278	224.294050	-211.184560	1435.283245	241.367106	212.363808	1181.167835	145.766824	-252.272850	1142.946148	264.434240	238.672540	926.238869	178.217170	-222.890949	940.840579	424.430157
2302	23.01000	10.349573	941.484079	180.732461	-29.977776	1500.332302	269.034550	-30.894086	1578.337862	418.601965	87.439537	947.395581	186.003771	-66.740079	935.572625	175.460926	86.050918	522.299447	331.114529	-126.744389	507.710592	248.209537	99.916824	104.380598	340.797776	-144.743240	206.961486	-42.583326	104.201872	50.697568	313.625601	-140.817746	191.766586	-97.995738	73.686344	74.608070	534.509833	-150.037250	51.793963	51.775663	156.256861	1465.183642	225.608415	-208.636254	1435.597795	239.467240	215.635508	1181.385445	148.027371	-249.202905	1142.975344	259.471296	240.651311	926.984305	183.089775	-221.908180	938.818852	415.955828
2303	23.02000	12.974810	942.092001	179.254719	-27.613459	1500.763655	268.870484	-29.643132	1578.730957	418.596525	90.127196	948.132582	184.635641	-64.177302	936.051461	173.873601	87.316487	521.597031	325.729820	-124.458907	509.374597	253.666808	99.404785	104.049290	330.731380	-142.213794	208.789731	-34.883226	103.441449	50.679144	303.060965	-138.145090	193.595776	-90.095579	73.501266	72.550531	523.910703	-148.604509	53.686575	59.325441	158.959337	1465.411006	226.922780	-206.087947	1435.912345	237.567373	218.907208	1181.603056	150.287918	-246.132961	1143.004539	254.508351	242.630082	927.729742	187.962381	-220.925411	936.797126	407.481499
2304	23.03000	15.600047	942.699922	177.776976	-25.249142	1501.195007	268.706418	-28.392178	1579.124053	418.591086	92.814855	948.869582	183.267510	-61.614525	936.530297	172.286276	88.582055	520.894614	320.345111	-122.173425	511.038601	259.124079	98.892745	103.717982	320.664984	-139.684348	210.617975	-27.183125	102.681026	50.660720	292.496328	-135.472434	195.424965	-82.195420	73.316187	70.492991	513.311573	-147.171767	55.579188	66.875219	161.661813	1465.638369	228.237145	-203.539640	1436.226895	235.667507	222.178908	1181.820666	152.548465	-243.063017	1143.033735	249.545407	244.608852	928.475178	192.834986	-219.942642	934.775399	399.007170
2305	23.04000	18.225284	943.307844	176.299233	-22.884826	1501.626359	268.542352	-27.141225	1579.517149	418.585646	95.502513	949.606583	181.899379	-59.051747	937.009134	170.698951	89.847623	520.192198	314.960402	-119.887943	512.702605	264.581350	98.380706	103.386674	310.598589	-137.154902	212.446220	-19.483025	101.920603	50.642296	281.931692	-132.799778	197.254154	-74.295260	73.131108	68.435452	502.712443	-145.739026	57.471800	74.424997	164.364288	1465.865733	229.551510	-200.991334	1436.541445	233.767641	225.450608	1182.038276	154.809012	-239.993073	1143.062930	244.582462	246.587623	929.220614	197.707592	-218.959873	932.753673	390.532841
2306	23.05000	20.850521	943.915765	174.821490	-20.520509	1502.057711	268.378287	-25.890271	1579.910245	418.580206	98.190172	950.343584	180.531248	-56.488970	937.487970	169.111625	91.113192	519.489782	309.575693	-117.602461	514.366610	270.038622	97.868666	103.055366	300.532193	-134.625457	214.274465	-11.782925	101.160180	50.623872	271.367055	-130.127122	199.083343	-66.395101	72.946030	66.377913	492.113313	-144.306284	59.364413	81.974775	167.066764	1466.093097	230.865875	-198.443027	1436.855995	231.867775	228.722308	1182.255886	157.069559	-236.923128	1143.092126	239.619518	248.566394	929.966050	202.580198	-217.977104	930.731946	382.058512
